<?xml version="1.0" encoding="UTF-8" standalone="no"?>
<svg width="500px" height="500px" viewBox="0 0 500 500" version="1.1" xmlns="http://www.w3.org/2000/svg" xmlns:xlink="http://www.w3.org/1999/xlink" style="background: #002F54;">
    <!-- Generator: Sketch 3.8.3 (29802) - http://www.bohemiancoding.com/sketch -->
    <title>Artboard 37</title>
    <desc>Created with Sketch.</desc>
    <defs></defs>
    <g id="BVL-Homepage" stroke="none" stroke-width="1" fill="none" fill-rule="evenodd">
        <g id="Artboard-37" fill="#93C83E">
            <g id="Group" transform="translate(88.000000, 134.000000)">
                <path d="M30.9217352,52.0759328 C98.9148396,83.8678173 234.725582,92.8257516 313.422117,53.481099 L323.511417,2.10471101 C221.214694,33.9844184 120.5849,34.3357099 41.0110346,0.699544844 L30.9217352,52.0759328 L30.9217352,52.0759328 Z" id="path2444"></path>
                <path d="M15.7439197,127.954906 C83.737024,159.74679 219.547767,168.704725 298.244302,129.360072 L308.333601,77.983684 C206.036879,109.863391 105.407084,110.214683 25.833219,76.5785178 L15.7439197,127.954906 L15.7439197,127.954906 Z" id="path2451"></path>
                <path d="M0.566104104,203.833879 C68.5592085,235.625763 204.369951,244.583698 283.066486,205.239045 L293.155785,153.862657 C190.859063,185.742364 90.2292688,186.093656 10.6554035,152.457491 L0.566104104,203.833879 L0.566104104,203.833879 Z" id="path2455"></path>
            </g>
        </g>
    </g>
</svg>