<?xml version="1.0" encoding="utf-8"?>
<!-- Generator: Adobe Illustrator 16.0.0, SVG Export Plug-In . SVG Version: 6.00 Build 0)  -->
<!DOCTYPE svg PUBLIC "-//W3C//DTD SVG 1.1//EN" "http://www.w3.org/Graphics/SVG/1.1/DTD/svg11.dtd">
<svg version="1.1" id="Layer_1" xmlns="http://www.w3.org/2000/svg" xmlns:xlink="http://www.w3.org/1999/xlink" x="0px" y="0px"
	 width="299px" height="52px" viewBox="0 0 299 52" style="enable-background:new 0 0 299 52;" xml:space="preserve">
<style type="text/css">
<![CDATA[
	.st0{fill:#5CC2EF;}
	.st1{fill:#93C83E;}
	.st2{fill:#FFFFFF;}
]]>
</style>
<path id="flowRoot4779" class="st2" d="M181,12.5c0.3-1.4,0.2-2.5-0.4-3.5c-0.5-1-1.8-1.5-3.8-1.6c-1.1,0-2,0.1-2.8,0.3
	c-0.8,0.2-1.4,0.4-1.9,0.7l0.3,2.4c0.4-0.2,0.9-0.4,1.5-0.6c0.6-0.1,1.1-0.2,1.7-0.2c0.8,0,1.3,0.2,1.5,0.4c0.2,0.3,0.3,0.7,0.2,1.1
	c-1.9,0-3.5,0.4-4.9,1.1c-1.4,0.7-2.2,1.8-2.6,3.4c-0.2,1,0,1.9,0.5,2.6c0.5,0.7,1.4,1,2.5,1.1c0.6,0,1.3-0.1,1.9-0.3
	c0.6-0.2,1.1-0.6,1.6-1h0.1l0,1.1h3.5c0-0.4,0-0.8,0.1-1.3c0.1-0.5,0.1-1,0.2-1.5L181,12.5L181,12.5z M176.7,15.4
	c-0.1,0.6-0.4,1-0.8,1.2s-0.8,0.4-1.2,0.4c-0.4,0-0.6-0.1-0.8-0.3c-0.2-0.2-0.3-0.6-0.2-1c0.1-0.7,0.5-1.1,1.2-1.4
	c0.6-0.3,1.3-0.4,2.2-0.4L176.7,15.4L176.7,15.4z M195.1,12.2c0.3-1.5,0.2-2.7-0.4-3.6c-0.5-0.8-1.4-1.3-2.7-1.3
	c-0.9,0-1.6,0.2-2.3,0.6c-0.6,0.3-1.1,0.7-1.5,1.2h-0.1l0.1-1.5h-3.3c-0.1,0.5-0.2,1.1-0.3,1.8c-0.1,0.6-0.2,1.3-0.3,2l-1.5,8h3.9
	l1.3-6.9c0.2-0.7,0.4-1.3,0.8-1.6c0.4-0.3,0.8-0.5,1.2-0.5c0.5,0,0.9,0.2,1.1,0.6c0.2,0.4,0.2,0.9,0.1,1.5l-1.3,6.8h3.9L195.1,12.2
	L195.1,12.2z M206.4,16.5h-5.6l2.4-13h-3.9l-3,16.2h9.5L206.4,16.5z M214.5,4.7c0.1-0.6,0-1-0.3-1.3c-0.3-0.3-0.7-0.5-1.3-0.5
	c-0.6,0-1.1,0.2-1.5,0.5c-0.4,0.3-0.7,0.8-0.8,1.3c-0.1,0.5,0,1,0.3,1.3c0.3,0.3,0.7,0.5,1.3,0.5c0.6,0,1.1-0.2,1.5-0.5
	C214.1,5.7,214.4,5.3,214.5,4.7L214.5,4.7z M213.9,7.9H210l-2.2,11.8h3.9L213.9,7.9z M227.1,12.5c0.3-1.5,0.2-2.7-0.4-3.6
	c-0.5-0.8-1.4-1.3-2.7-1.3c-0.9,0-1.6,0.2-2.3,0.6c-0.6,0.3-1.1,0.7-1.5,1.2h-0.1l0.1-1.5h-3.3c-0.1,0.6-0.2,1.1-0.3,1.8
	c-0.1,0.6-0.2,1.3-0.3,2l-1.5,8h3.9l1.3-6.9c0.2-0.7,0.4-1.3,0.8-1.6c0.4-0.3,0.8-0.5,1.2-0.5c0.5,0,0.9,0.2,1,0.6
	c0.2,0.4,0.2,0.9,0.1,1.5l-1.3,6.8h3.9L227.1,12.5L227.1,12.5z M238,16.7c-0.5,0.1-1,0.2-1.5,0.3c-0.5,0.1-1.1,0.1-1.6,0.1
	c-0.8,0-1.5-0.2-2-0.5c-0.5-0.3-0.7-0.9-0.6-1.6h7c0.1-0.2,0.2-0.4,0.2-0.7c0.1-0.3,0.1-0.6,0.2-0.8c0.4-2,0.1-3.5-0.6-4.4
	c-0.7-1-1.9-1.4-3.4-1.4c-1.9,0.1-3.4,0.7-4.6,1.9c-1.2,1.2-2,2.7-2.3,4.4c-0.3,1.9-0.1,3.3,0.8,4.3c0.9,1,2.3,1.6,4.2,1.6
	c0.7,0,1.5-0.1,2.2-0.2c0.7-0.1,1.4-0.3,2-0.5L238,16.7z M232.7,12.6c0.1-0.5,0.4-1,0.8-1.5c0.4-0.5,0.9-0.8,1.6-0.8
	c0.7,0,1.1,0.3,1.2,0.8c0.1,0.5,0.2,1,0.1,1.6L232.7,12.6L232.7,12.6z M250.6,8.3c-0.3-0.2-0.8-0.3-1.3-0.4
	c-0.5-0.1-1.1-0.2-1.7-0.2c-1.5,0-2.7,0.4-3.7,1.1c-1,0.7-1.6,1.6-1.8,2.8c-0.1,0.6,0,1.2,0.3,1.8c0.3,0.6,1.1,1.1,2.1,1.6
	c0.6,0.2,1,0.4,1.2,0.6c0.2,0.2,0.3,0.4,0.2,0.7c-0.1,0.3-0.2,0.5-0.5,0.7c-0.3,0.1-0.6,0.2-1.1,0.2c-0.5,0-1-0.1-1.5-0.2
	c-0.5-0.2-0.9-0.3-1.2-0.5l-1.1,2.6c0.4,0.2,0.9,0.4,1.5,0.6c0.6,0.1,1.3,0.2,2,0.2c1.6,0,2.9-0.3,3.9-1c1-0.7,1.6-1.6,1.9-2.8
	c0.1-0.8,0-1.4-0.3-2c-0.4-0.6-1-1.1-2-1.5c-0.6-0.3-1-0.5-1.3-0.7c-0.2-0.2-0.3-0.4-0.2-0.6c0-0.3,0.2-0.5,0.4-0.6
	c0.3-0.2,0.6-0.2,1-0.2c0.4,0,0.9,0.1,1.3,0.2c0.4,0.1,0.7,0.2,0.9,0.4L250.6,8.3L250.6,8.3z"/>
<path id="flowRoot4795" class="st2" d="M262.3,4.6c0,0.7-0.2,1.3-0.5,1.8c-0.3,0.6-0.8,1-1.3,1.3c-0.6,0.3-1.2,0.5-1.8,0.5
	s-1.3-0.2-1.8-0.5c-0.6-0.3-1-0.8-1.3-1.3c-0.3-0.6-0.5-1.2-0.5-1.8s0.2-1.3,0.5-1.8c0.3-0.6,0.8-1,1.3-1.3c0.6-0.3,1.2-0.5,1.8-0.5
	s1.3,0.2,1.8,0.5c0.6,0.3,1,0.8,1.3,1.3C262.1,3.4,262.3,4,262.3,4.6L262.3,4.6z M261.6,4.6c0-0.8-0.3-1.5-0.9-2.1
	c-0.6-0.6-1.3-0.9-2.1-0.9s-1.5,0.3-2.1,0.9c-0.6,0.6-0.9,1.3-0.9,2.1s0.3,1.5,0.9,2.1c0.6,0.6,1.3,0.9,2.1,0.9s1.5-0.3,2.1-0.9
	C261.3,6.1,261.6,5.5,261.6,4.6L261.6,4.6z M257,2.7h1.7c0.5,0,0.9,0.1,1.1,0.3c0.2,0.2,0.3,0.5,0.3,0.8c0,0.3-0.1,0.5-0.3,0.7
	c-0.2,0.2-0.4,0.3-0.8,0.4c0.1,0.1,0.3,0.1,0.3,0.2c0.1,0.1,0.2,0.2,0.3,0.4c0,0,0.2,0.4,0.6,1.1h-1.1c-0.4-0.7-0.6-1.2-0.8-1.3
	c-0.1-0.1-0.3-0.2-0.4-0.2c0,0-0.1,0-0.1,0v1.5h-1L257,2.7L257,2.7L257,2.7z M258,4.3h0.4c0.3,0,0.5,0,0.6-0.1
	c0.1-0.1,0.2-0.2,0.2-0.3s-0.1-0.3-0.2-0.3c-0.1-0.1-0.3-0.1-0.6-0.1H258L258,4.3L258,4.3L258,4.3z"/>
<path id="flowRoot5004" class="st2" d="M168.3,4.1c-2.2,3.9-3.9,7.7-5.9,11.7l0.3-11.7h-4.3l-0.1,15.3h5.7l8.5-15.3H168.3z"/>
<path id="path2444" class="st1" d="M4.8,10.2c8.7,4.1,26.1,5.2,36.2,0.2l1.3-6.6C29.2,7.9,16.3,8,6.1,3.7L4.8,10.2z"/>
<path id="path2451" class="st1" d="M2.9,20c8.7,4.1,26.1,5.2,36.2,0.2l1.3-6.6c-13.1,4.1-26,4.1-36.2-0.2L2.9,20z"/>
<path id="path2455" class="st1" d="M0.9,29.7c8.7,4.1,26.1,5.2,36.2,0.2l1.3-6.6c-13.1,4.1-26,4.1-36.2-0.2L0.9,29.7z"/>
<g>
	<path class="st2" d="M166.4,25.1c0-0.4-0.1-0.7-0.2-0.9c-0.2-0.2-0.5-0.3-0.9-0.3c-1.5,0-2,2-2,2.9c0,0.9,0.2,1.7,1.2,1.7
		c1,0,1.4-0.8,1.6-1.4h3.4c-0.6,2.7-2.3,3.9-5,3.9c-3.9,0-4.7-2.5-4.7-4.3c0-3.2,2.1-5.5,5.6-5.5c2.6,0,4.5,1.2,4.5,3.8L166.4,25.1
		L166.4,25.1L166.4,25.1z"/>
	<path class="st2" d="M175.7,21.3c2.7,0,4.5,1.3,4.5,4.1c0,2.4-1.3,5.7-5.6,5.7c-2.6,0-4.6-1.2-4.6-4.4
		C170,23.8,171.9,21.3,175.7,21.3z M174.8,28.5c1.4,0,1.9-2.1,1.9-2.9c0-1.1-0.3-1.7-1.2-1.7c-1.4,0-1.9,2.1-1.9,3.1
		C173.5,27.8,173.8,28.5,174.8,28.5z"/>
	<path class="st2" d="M182.4,21.6h3.4l-0.3,1.2h0c0.7-0.9,1.7-1.4,2.9-1.4c1.2,0,2.3,0.4,2.5,1.5c0.8-1,1.8-1.5,3-1.5
		c1.8,0,3,0.8,3,2.8c0,0.4-0.1,1.1-0.2,1.5l-1.1,5.3h-3.6l1-4.5c0-0.2,0.2-1.1,0.2-1.4c0-0.6-0.3-0.9-0.9-0.9
		c-0.7,0-1.2,0.4-1.3,1.1l-1.2,5.6h-3.6l1.1-5c0.1-0.2,0.1-0.6,0.1-0.9c0-0.6-0.3-0.9-0.9-0.9c-0.9,0-1.3,0.6-1.5,1.4l-1.1,5.3h-3.6
		L182.4,21.6z"/>
</g>
<path class="st2" d="M156.7,27.2c0.9,0,1.7,0.8,1.7,1.8c0,1-0.7,1.8-1.7,1.8s-1.7-0.8-1.7-1.8C155,28.1,155.8,27.2,156.7,27.2z"/>
<g>
	<path class="st0" d="M124.4,41.4l2.8-4.4h1.8l-4.1,6l-0.8,3.6h-1.6l0.8-3.6l-1.6-6h1.6L124.4,41.4z"/>
	<path class="st0" d="M134.8,42c0,0.9-0.2,1.7-0.5,2.4c-0.3,0.7-0.8,1.3-1.3,1.7c-0.6,0.4-1.2,0.6-1.9,0.6c-0.8,0-1.5-0.2-2-0.8
		c-0.5-0.5-0.7-1.2-0.7-2.1c0-0.9,0.2-1.7,0.5-2.4c0.3-0.7,0.8-1.3,1.3-1.7c0.6-0.4,1.2-0.6,2-0.6c0.9,0,1.5,0.3,2,0.8
		C134.6,40.5,134.8,41.1,134.8,42z M133.3,42c0-0.5-0.1-0.8-0.3-1.1c-0.2-0.3-0.5-0.4-0.9-0.4c-0.4,0-0.8,0.2-1.1,0.5
		c-0.3,0.3-0.6,0.7-0.8,1.3c-0.2,0.5-0.3,1.1-0.3,1.7c0,0.5,0.1,0.9,0.3,1.1c0.2,0.3,0.5,0.4,1,0.4c0.4,0,0.8-0.1,1.1-0.4
		c0.3-0.3,0.6-0.7,0.7-1.3C133.2,43.2,133.3,42.6,133.3,42z"/>
	<path class="st0" d="M138.8,39.3l-0.9,4c-0.1,0.6-0.2,1-0.2,1.3c0,0.6,0.3,0.9,0.8,0.9c0.3,0,0.6-0.1,0.9-0.4
		c0.3-0.3,0.6-0.6,0.8-1.1c0.2-0.5,0.4-1,0.6-1.6l0.7-3.1h1.5l-1.5,7.3h-1.2l0.1-1.3h-0.1c-0.4,0.5-0.7,0.9-1.1,1.1
		c-0.4,0.2-0.8,0.4-1.3,0.4c-0.6,0-1-0.2-1.4-0.5c-0.3-0.3-0.5-0.8-0.5-1.4c0-0.3,0-0.6,0.1-0.8c0.1-0.3,0.1-0.5,0.2-0.8l0.8-3.8
		L138.8,39.3L138.8,39.3L138.8,39.3z"/>
	<path class="st0" d="M148.7,39.2c0.3,0,0.5,0,0.7,0.1l-0.3,1.4c-0.2-0.1-0.5-0.1-0.7-0.1c-0.6,0-1,0.3-1.5,0.7
		c-0.4,0.5-0.7,1.1-0.9,2l-0.7,3.3h-1.6l1.6-7.3h1.2l-0.1,1.3h0.1c0.4-0.5,0.7-0.9,1.1-1.1C147.9,39.3,148.3,39.2,148.7,39.2z"/>
	<path class="st0" d="M157.8,39.2c1,0,1.5,0.5,1.7,1.5h0.1c0.3-0.5,0.7-0.9,1.1-1.2c0.4-0.3,0.9-0.4,1.3-0.4c0.6,0,1,0.2,1.3,0.5
		c0.3,0.3,0.5,0.8,0.5,1.4c0,0.3,0,0.7-0.1,1.2l-0.9,4.3h-1.6l0.9-4.4c0.1-0.4,0.1-0.7,0.1-0.9c0-0.6-0.3-0.9-0.8-0.9
		c-0.5,0-0.9,0.3-1.3,0.8c-0.4,0.5-0.7,1.3-0.9,2.2l-0.7,3.2h-1.6l0.9-4.4c0.1-0.4,0.1-0.6,0.1-0.8c0-0.6-0.3-0.9-0.8-0.9
		c-0.5,0-0.9,0.3-1.3,0.8c-0.4,0.6-0.7,1.3-0.9,2.2l-0.6,3.1h-1.5l1.5-7.3h1.2l-0.1,1.3h0.1C156.1,39.7,156.9,39.2,157.8,39.2z"/>
	<path class="st0" d="M171.5,42c0,0.9-0.2,1.7-0.5,2.4c-0.3,0.7-0.8,1.3-1.3,1.7c-0.6,0.4-1.2,0.6-1.9,0.6c-0.8,0-1.5-0.2-2-0.8
		c-0.5-0.5-0.7-1.2-0.7-2.1c0-0.9,0.2-1.7,0.5-2.4c0.3-0.7,0.8-1.3,1.3-1.7c0.6-0.4,1.2-0.6,2-0.6c0.9,0,1.5,0.3,2,0.8
		C171.3,40.5,171.5,41.1,171.5,42z M170,42c0-0.5-0.1-0.8-0.3-1.1c-0.2-0.3-0.5-0.4-0.9-0.4c-0.4,0-0.8,0.2-1.1,0.5
		c-0.3,0.3-0.6,0.7-0.8,1.3c-0.2,0.5-0.3,1.1-0.3,1.7c0,0.5,0.1,0.9,0.3,1.1c0.2,0.3,0.5,0.4,1,0.4c0.4,0,0.8-0.1,1.1-0.4
		c0.3-0.3,0.6-0.7,0.7-1.3C169.9,43.2,170,42.6,170,42z"/>
	<path class="st0" d="M173.7,46.6l-0.9-7.3h1.5l0.4,3.9c0.1,0.7,0.1,1.3,0.1,2h0c0.1-0.3,0.3-0.7,0.5-1.1c0.2-0.4,0.3-0.7,0.4-0.9
		l2-3.9h1.7l-3.9,7.3H173.7z"/>
	<path class="st0" d="M182.1,46.7c-0.9,0-1.5-0.2-2-0.7c-0.5-0.5-0.7-1.2-0.7-2c0-0.9,0.2-1.7,0.5-2.4c0.3-0.8,0.8-1.3,1.4-1.7
		c0.6-0.4,1.2-0.6,2-0.6c0.7,0,1.3,0.2,1.7,0.5c0.4,0.3,0.6,0.8,0.6,1.4c0,0.8-0.4,1.4-1.1,1.9c-0.7,0.4-1.8,0.7-3.1,0.7h-0.3l0,0.2
		v0.2c0,0.5,0.1,0.9,0.4,1.1c0.2,0.3,0.6,0.4,1.1,0.4c0.3,0,0.6,0,0.9-0.1c0.3-0.1,0.7-0.2,1.1-0.4v1.2c-0.4,0.2-0.8,0.3-1.2,0.4
		C183,46.7,182.6,46.7,182.1,46.7z M183.1,40.4c-0.4,0-0.8,0.2-1.2,0.6c-0.4,0.4-0.6,0.9-0.8,1.5h0.2c0.8,0,1.5-0.1,1.9-0.3
		c0.5-0.2,0.7-0.6,0.7-1c0-0.2-0.1-0.4-0.2-0.5C183.6,40.4,183.4,40.4,183.1,40.4z"/>
	<path class="st0" d="M191.1,39.2c0.3,0,0.5,0,0.7,0.1l-0.3,1.4c-0.2-0.1-0.5-0.1-0.7-0.1c-0.6,0-1,0.3-1.5,0.7
		c-0.4,0.5-0.7,1.1-0.9,2l-0.7,3.3h-1.6l1.6-7.3h1.2l-0.1,1.3h0.1c0.4-0.5,0.7-0.9,1.1-1.1C190.3,39.3,190.7,39.2,191.1,39.2z"/>
	<path class="st0" d="M200.2,39.2c1,0,1.5,0.5,1.7,1.5h0.1c0.3-0.5,0.7-0.9,1.1-1.2c0.4-0.3,0.9-0.4,1.3-0.4c0.6,0,1,0.2,1.3,0.5
		c0.3,0.3,0.5,0.8,0.5,1.4c0,0.3,0,0.7-0.1,1.2l-0.9,4.3h-1.6l0.9-4.4c0.1-0.4,0.1-0.7,0.1-0.9c0-0.6-0.3-0.9-0.8-0.9
		c-0.5,0-0.9,0.3-1.3,0.8c-0.4,0.5-0.7,1.3-0.9,2.2l-0.7,3.2h-1.6l0.9-4.4c0.1-0.4,0.1-0.6,0.1-0.8c0-0.6-0.3-0.9-0.8-0.9
		c-0.5,0-0.9,0.3-1.3,0.8c-0.4,0.6-0.7,1.3-0.9,2.2l-0.6,3.1h-1.5l1.5-7.3h1.2l-0.1,1.3h0.1C198.5,39.7,199.3,39.2,200.2,39.2z"/>
	<path class="st0" d="M209.5,46.7c-0.6,0-1.1-0.2-1.5-0.7c-0.4-0.4-0.5-1.1-0.5-1.9c0-0.9,0.2-1.7,0.5-2.5c0.3-0.8,0.7-1.4,1.3-1.8
		c0.5-0.5,1.1-0.7,1.8-0.7c0.4,0,0.8,0.1,1.1,0.3c0.3,0.2,0.6,0.5,0.7,0.9h0.1l0.4-1h1.2l-1.6,7.3h-1.2l0.1-1.2h0
		C211.1,46.3,210.3,46.7,209.5,46.7z M210,45.5c0.4,0,0.7-0.2,1.1-0.5c0.3-0.3,0.6-0.8,0.9-1.4c0.2-0.6,0.3-1.2,0.3-1.9
		c0-0.4-0.1-0.7-0.3-0.9c-0.2-0.2-0.5-0.3-0.8-0.3c-0.4,0-0.7,0.2-1.1,0.5c-0.3,0.3-0.6,0.8-0.8,1.4c-0.2,0.6-0.3,1.2-0.3,1.8
		c0,0.5,0.1,0.8,0.3,1C209.5,45.4,209.7,45.5,210,45.5z"/>
	<path class="st0" d="M217.7,45.5c0.3,0,0.6-0.1,1-0.2v1.2c-0.2,0.1-0.4,0.1-0.6,0.2c-0.3,0.1-0.5,0.1-0.8,0.1
		c-1.2,0-1.8-0.5-1.8-1.6c0-0.2,0-0.5,0.1-0.9l0.8-3.8h-1.1l0.1-0.7l1.2-0.5l0.9-1.5h1l-0.3,1.6h1.8l-0.3,1.2h-1.8l-0.8,3.8
		c-0.1,0.2-0.1,0.4-0.1,0.6c0,0.2,0.1,0.3,0.2,0.5C217.3,45.4,217.5,45.5,217.7,45.5z"/>
	<path class="st0" d="M223,46.7c-0.9,0-1.5-0.2-2-0.7c-0.5-0.5-0.7-1.1-0.7-2c0-0.9,0.2-1.7,0.5-2.5c0.3-0.7,0.8-1.3,1.4-1.7
		c0.6-0.4,1.2-0.6,2-0.6c0.7,0,1.4,0.1,2,0.4l-0.5,1.2c-0.5-0.2-1-0.3-1.5-0.3c-0.7,0-1.2,0.3-1.7,1c-0.4,0.7-0.7,1.5-0.7,2.5
		c0,0.5,0.1,0.9,0.4,1.1c0.2,0.3,0.6,0.4,1,0.4c0.3,0,0.6,0,0.9-0.1c0.3-0.1,0.6-0.2,0.9-0.4v1.3C224.4,46.6,223.7,46.7,223,46.7z"
		/>
	<path class="st0" d="M230.5,46.6l0.9-4.4c0.1-0.4,0.1-0.7,0.1-0.8c0-0.6-0.3-0.9-0.9-0.9c-0.5,0-1,0.3-1.4,0.8
		c-0.4,0.6-0.7,1.3-0.9,2.3l-0.6,3.1h-1.6l2.2-10.3h1.6l-0.4,1.7c-0.1,0.6-0.3,1.2-0.5,1.9l-0.1,0.5h0.1c0.4-0.5,0.7-0.8,1.1-1
		c0.4-0.2,0.8-0.3,1.2-0.3c0.6,0,1.1,0.2,1.4,0.5c0.3,0.3,0.5,0.8,0.5,1.5c0,0.3,0,0.7-0.1,1.1l-0.9,4.3H230.5L230.5,46.6z"/>
	<path class="st0" d="M235.7,46.6h-1.6l1.6-7.3h1.6L235.7,46.6z M236.1,37.5c0-0.3,0.1-0.5,0.3-0.7c0.2-0.2,0.4-0.3,0.7-0.3
		c0.2,0,0.4,0.1,0.6,0.2c0.1,0.1,0.2,0.3,0.2,0.5c0,0.3-0.1,0.6-0.3,0.7c-0.2,0.2-0.4,0.3-0.7,0.3c-0.2,0-0.4-0.1-0.6-0.2
		C236.1,37.9,236.1,37.8,236.1,37.5z"/>
	<path class="st0" d="M242.2,46.6l0.9-4.4c0.1-0.4,0.1-0.7,0.1-0.9c0-0.6-0.3-0.9-0.9-0.9c-0.3,0-0.6,0.1-0.9,0.4
		c-0.3,0.2-0.6,0.6-0.8,1.1c-0.2,0.5-0.4,1-0.6,1.6l-0.6,3.1h-1.6l1.5-7.3h1.2l-0.1,1.3h0.1c0.4-0.5,0.7-0.9,1.1-1.1
		c0.4-0.2,0.8-0.3,1.3-0.3c0.6,0,1,0.2,1.4,0.5c0.3,0.3,0.5,0.8,0.5,1.4c0,0.3,0,0.7-0.1,1.2l-0.9,4.3L242.2,46.6L242.2,46.6
		L242.2,46.6z"/>
	<path class="st0" d="M253.1,39.3l-0.2,0.9l-1.3,0.2c0.1,0.3,0.2,0.6,0.2,0.9c0,0.8-0.3,1.5-0.8,2c-0.5,0.5-1.2,0.8-2.1,0.8
		c-0.2,0-0.4,0-0.6-0.1c-0.5,0.2-0.7,0.4-0.7,0.7c0,0.2,0.1,0.3,0.2,0.3c0.1,0.1,0.3,0.1,0.6,0.1l0.8,0.1c0.8,0.1,1.3,0.3,1.7,0.6
		c0.3,0.3,0.5,0.7,0.5,1.2c0,0.9-0.3,1.5-1,2c-0.7,0.5-1.6,0.7-2.8,0.7c-0.9,0-1.6-0.2-2.1-0.5c-0.5-0.3-0.7-0.8-0.7-1.4
		c0-0.5,0.2-0.8,0.5-1.2c0.3-0.3,0.8-0.6,1.5-0.8c-0.3-0.2-0.5-0.5-0.5-0.8c0-0.3,0.1-0.6,0.3-0.8c0.2-0.2,0.5-0.4,1-0.6
		c-0.6-0.4-0.9-0.9-0.9-1.7c0-0.9,0.3-1.6,0.8-2.1c0.5-0.5,1.2-0.8,2.1-0.8c0.3,0,0.7,0,1.1,0.1L253.1,39.3L253.1,39.3L253.1,39.3z
		 M247.7,46.5c-0.5,0.1-0.9,0.2-1.1,0.5s-0.4,0.5-0.4,0.9c0,0.3,0.1,0.5,0.4,0.7c0.3,0.2,0.6,0.3,1.1,0.3c0.7,0,1.3-0.1,1.7-0.4
		c0.4-0.2,0.6-0.6,0.6-1c0-0.2-0.1-0.4-0.3-0.5c-0.2-0.1-0.5-0.2-1-0.3L247.7,46.5z M249.5,40.2c-0.3,0-0.5,0.1-0.8,0.3
		c-0.2,0.2-0.4,0.4-0.5,0.7c-0.1,0.3-0.2,0.6-0.2,1c0,0.3,0.1,0.6,0.2,0.7c0.2,0.2,0.4,0.3,0.7,0.3c0.3,0,0.5-0.1,0.7-0.3
		c0.2-0.2,0.4-0.4,0.5-0.7c0.1-0.3,0.2-0.6,0.2-1C250.3,40.5,250.1,40.2,249.5,40.2z"/>
	<path class="st0" d="M261.3,44.4c0,0.8-0.3,1.3-0.8,1.8c-0.5,0.4-1.2,0.6-2.2,0.6c-0.8,0-1.5-0.1-2.1-0.4V45
		c0.7,0.4,1.4,0.6,2.1,0.6c0.4,0,0.8-0.1,1-0.3c0.3-0.2,0.4-0.4,0.4-0.7c0-0.2-0.1-0.4-0.2-0.6c-0.1-0.2-0.5-0.4-0.9-0.6
		c-0.6-0.3-0.9-0.6-1.2-0.9c-0.2-0.3-0.3-0.7-0.3-1.1c0-0.7,0.2-1.2,0.7-1.6c0.5-0.4,1.1-0.6,1.9-0.6c0.9,0,1.6,0.2,2.3,0.6
		l-0.5,1.2c-0.6-0.3-1.2-0.5-1.8-0.5c-0.3,0-0.6,0.1-0.8,0.2c-0.2,0.1-0.3,0.4-0.3,0.6c0,0.2,0.1,0.4,0.2,0.5
		c0.1,0.2,0.4,0.3,0.9,0.6c0.5,0.3,0.8,0.5,1,0.7c0.2,0.2,0.3,0.4,0.4,0.6C261.2,43.8,261.3,44.1,261.3,44.4z"/>
	<path class="st0" d="M265.6,46.7c-0.9,0-1.5-0.2-2-0.7c-0.5-0.5-0.7-1.2-0.7-2c0-0.9,0.2-1.7,0.5-2.4c0.3-0.8,0.8-1.3,1.4-1.7
		c0.6-0.4,1.2-0.6,2-0.6c0.7,0,1.3,0.2,1.7,0.5c0.4,0.3,0.6,0.8,0.6,1.4c0,0.8-0.4,1.4-1.1,1.9c-0.7,0.4-1.8,0.7-3.1,0.7h-0.3l0,0.2
		v0.2c0,0.5,0.1,0.9,0.4,1.1c0.2,0.3,0.6,0.4,1.1,0.4c0.3,0,0.6,0,0.9-0.1c0.3-0.1,0.7-0.2,1.1-0.4v1.2c-0.4,0.2-0.8,0.3-1.2,0.4
		C266.4,46.7,266,46.7,265.6,46.7z M266.6,40.4c-0.4,0-0.8,0.2-1.2,0.6c-0.4,0.4-0.6,0.9-0.8,1.5h0.2c0.8,0,1.5-0.1,1.9-0.3
		c0.5-0.2,0.7-0.6,0.7-1c0-0.2-0.1-0.4-0.2-0.5C267,40.4,266.8,40.4,266.6,40.4z"/>
	<path class="st0" d="M274.5,39.2c0.3,0,0.5,0,0.7,0.1l-0.3,1.4c-0.2-0.1-0.5-0.1-0.7-0.1c-0.6,0-1,0.3-1.5,0.7
		c-0.4,0.5-0.7,1.1-0.9,2l-0.7,3.3h-1.6l1.6-7.3h1.2l-0.1,1.3h0.1c0.4-0.5,0.7-0.9,1.1-1.1C273.7,39.3,274.1,39.2,274.5,39.2z"/>
	<path class="st0" d="M276.3,46.6l-0.9-7.3h1.5l0.4,3.9c0.1,0.7,0.1,1.3,0.1,2h0c0.1-0.3,0.3-0.7,0.5-1.1c0.2-0.4,0.3-0.7,0.4-0.9
		l2-3.9h1.7l-3.9,7.3H276.3z"/>
	<path class="st0" d="M283.2,46.6h-1.6l1.6-7.3h1.5L283.2,46.6z M283.5,37.5c0-0.3,0.1-0.5,0.3-0.7c0.2-0.2,0.4-0.3,0.7-0.3
		c0.2,0,0.4,0.1,0.6,0.2c0.1,0.1,0.2,0.3,0.2,0.5c0,0.3-0.1,0.6-0.3,0.7c-0.2,0.2-0.4,0.3-0.7,0.3c-0.2,0-0.4-0.1-0.6-0.2
		C283.6,37.9,283.5,37.8,283.5,37.5z"/>
	<path class="st0" d="M288.4,46.7c-0.9,0-1.5-0.2-2-0.7c-0.5-0.5-0.7-1.1-0.7-2c0-0.9,0.2-1.7,0.5-2.5c0.3-0.7,0.8-1.3,1.4-1.7
		c0.6-0.4,1.3-0.6,2-0.6c0.7,0,1.4,0.1,2,0.4l-0.5,1.2c-0.5-0.2-1-0.3-1.5-0.3c-0.7,0-1.2,0.3-1.7,1c-0.4,0.7-0.7,1.5-0.7,2.5
		c0,0.5,0.1,0.9,0.4,1.1c0.3,0.3,0.6,0.4,1,0.4c0.3,0,0.6,0,0.9-0.1c0.3-0.1,0.6-0.2,0.9-0.4v1.3C289.8,46.6,289.1,46.7,288.4,46.7z
		"/>
	<path class="st0" d="M294.7,46.7c-0.9,0-1.5-0.2-2-0.7c-0.5-0.5-0.7-1.2-0.7-2c0-0.9,0.2-1.7,0.5-2.4s0.8-1.3,1.4-1.7
		c0.6-0.4,1.2-0.6,2-0.6c0.7,0,1.3,0.2,1.7,0.5c0.4,0.3,0.6,0.8,0.6,1.4c0,0.8-0.4,1.4-1.1,1.9c-0.7,0.4-1.8,0.7-3.1,0.7h-0.3l0,0.2
		v0.2c0,0.5,0.1,0.9,0.4,1.1c0.3,0.3,0.6,0.4,1.1,0.4c0.3,0,0.6,0,0.9-0.1c0.3-0.1,0.7-0.2,1.1-0.4v1.2c-0.4,0.2-0.8,0.3-1.2,0.4
		C295.6,46.7,295.2,46.7,294.7,46.7z M295.7,40.4c-0.4,0-0.8,0.2-1.2,0.6c-0.4,0.4-0.6,0.9-0.8,1.5h0.2c0.8,0,1.5-0.1,1.9-0.3
		c0.5-0.2,0.7-0.6,0.7-1c0-0.2-0.1-0.4-0.2-0.5C296.2,40.4,296,40.4,295.7,40.4z"/>
</g>
<g>
	<path class="st2" d="M76.2,10.9L74.1,23c-0.2,1-0.6,1.8-1.2,2.2c-0.6,0.5-1.2,0.7-1.8,0.7c-0.9,0-1.4-0.4-1.7-1.1
		c-0.3-0.7-0.3-1.8,0-3.1l1.9-10.8h-6.2l-2.1,11.7c-0.5,2.8-0.3,4.9,0.5,6.3c0.8,1.4,2.3,2.1,4.3,2c1.4,0,2.7-0.3,3.7-0.9
		c1-0.6,1.8-1.2,2.3-1.9h0.1l-0.1,2.5h5.3c0.1-0.9,0.3-1.8,0.4-2.9c0.1-1.1,0.3-2.2,0.5-3.4l2.4-13.4L76.2,10.9L76.2,10.9z"/>
	<path class="st2" d="M60.6,5c-0.9-0.6-1.9-1.1-3.1-1.3c-1.2-0.2-2.6-0.3-4.2-0.3c-1.4,0-2.8,0.1-4.1,0.2c-1.3,0.1-2.2,0.2-3.1,0.4
		L46,4.8l0,0l-2.4,13.7h0l-2.3,12c0.7,0.1,1.5,0.2,2.5,0.3c1,0.1,2.1,0.1,3.5,0.1c2.6,0,4.7-0.2,6.5-0.7c1.7-0.4,3.1-1.1,4.1-1.9
		c0.9-0.7,1.7-1.6,2.3-2.5c0.6-1,1-2,1.2-3c0.3-1.6,0.1-3-0.6-4.1c-0.7-1.1-1.8-1.9-3.3-2.4l0-0.1c1.6-0.6,2.8-1.4,3.6-2.5
		c0.9-1,1.4-2.1,1.6-3.3c0.2-1.1,0.1-2.2-0.2-3C62,6.3,61.4,5.6,60.6,5z M54.9,22.5c-0.3,1.3-0.9,2.3-1.8,2.9c-1,0.6-2,0.9-3.3,0.9
		c-0.4,0-0.7,0-1,0c-0.3,0-0.5,0-0.7-0.1l1.3-7.3l0,0H51c1.2,0,2.2,0.3,3,0.8C54.8,20.2,55.1,21.1,54.9,22.5z M56.3,11
		c-0.2,1-0.7,1.8-1.5,2.4c-0.4,0.3-0.8,0.5-1.3,0.6c-1.3,0.4-2.2,0.2-3.1,0l1.1-5.6L51.6,8c0.1,0,0.3,0,0.5-0.1
		c0.3,0,0.7-0.1,1.2-0.1c1.1,0,1.9,0.2,2.4,0.7C56.3,9.1,56.5,9.9,56.3,11z"/>
	<path class="st2" d="M148.5,15.3h4.1l0.8-4.4h-4.1l1.7-8.2l-6.4,1.7l-1.4,6.5h-2.4l-0.8,4.4h2.4l-1.4,8.2c-0.2,0.8-0.3,1.8-0.3,2.9
		c0,1.2,0.4,2.2,1.1,3.1c0.7,0.9,2.1,1.4,4,1.4c0.8,0,1.6,0,2.2-0.1c0.7-0.1,1.2-0.2,1.6-0.3l0.8-4.8c-0.3,0.1-0.5,0.1-0.8,0.1
		c-0.2,0-0.5,0-0.9,0c-0.7,0-1.2-0.2-1.5-0.7c-0.3-0.5-0.3-1.3-0.1-2.4L148.5,15.3z"/>
	<path class="st2" d="M132.8,10.5c-3,0.1-5.4,1.1-7.3,3.2c-1.9,2-3.2,4.5-3.7,7.4c-0.5,3.1-0.1,5.5,1.3,7.2c1.4,1.7,3.6,2.6,6.7,2.6
		c1.2,0,2.3-0.1,3.5-0.3c1.1-0.2,2.2-0.4,3.2-0.8l-0.1-4.3c-0.7,0.2-1.5,0.4-2.3,0.6c-0.8,0.1-1.7,0.2-2.6,0.2
		c-1.3,0-2.4-0.3-3.1-0.8c-0.8-0.6-1.1-1.4-1-2.6h11.1c0.1-0.3,0.3-0.7,0.4-1.2c0.1-0.4,0.2-0.9,0.3-1.4c0.5-3.3,0.2-5.8-0.9-7.4
		C137,11.3,135.2,10.5,132.8,10.5z M133.7,18.7H128c0.2-0.9,0.6-1.7,1.2-2.6c0.6-0.8,1.4-1.3,2.5-1.4c1,0.1,1.7,0.5,1.9,1.3
		C133.9,16.9,133.9,17.8,133.7,18.7z"/>
	<path class="st2" d="M116.8,10.9l-0.7,2.1h-0.1c-0.3-0.8-0.8-1.4-1.5-1.9c-0.7-0.4-1.5-0.7-2.6-0.7c-2.3,0-4.3,1-6.1,2.8
		c-1.8,1.8-3,4.3-3.7,7.5c-0.5,2.7-0.2,4.9,0.8,6.7c1,1.8,2.6,2.7,5,2.8c0.9,0,1.8-0.2,2.6-0.6c0.8-0.4,1.6-0.9,2.2-1.6h0.1
		l-0.2,1.1c-0.3,1.6-0.9,2.7-1.8,3.5c-0.9,0.8-2,1.2-3.4,1.2c-1,0-1.9-0.1-2.7-0.3c-0.8-0.2-1.5-0.5-2-0.8l-1.9,4.7
		c0.8,0.4,1.7,0.7,2.7,0.9c1,0.2,2.1,0.3,3.3,0.3c3,0,5.3-0.6,7-1.7c1.7-1.1,2.9-2.4,3.6-4.1c0.8-1.6,1.3-3.3,1.5-5l1.9-11.1
		c0.2-1.3,0.5-2.5,0.7-3.5c0.2-1,0.4-1.9,0.6-2.6H116.8z M114.4,18.6l-0.7,3.8c-0.2,1.2-0.6,2.1-1.2,2.6c-0.6,0.5-1.2,0.8-1.9,0.7
		c-1,0-1.6-0.5-2-1.4c-0.4-0.9-0.5-2.1-0.2-3.7c0.3-1.6,0.8-2.9,1.6-3.9c0.7-1,1.6-1.5,2.6-1.5c0.7,0,1.2,0.3,1.6,0.8
		C114.5,16.7,114.6,17.5,114.4,18.6z"/>
	<path class="st2" d="M97.6,2.4l-1.8,10.1h-0.1c-0.2-0.6-0.7-1.1-1.3-1.5c-0.7-0.4-1.5-0.6-2.6-0.6c-2.1,0-4.1,0.9-5.9,2.7
		c-1.8,1.8-3,4.3-3.7,7.7c-0.5,3-0.3,5.4,0.7,7.2c1,1.9,2.6,2.8,4.9,2.9c1.1,0,2.1-0.3,3.1-0.8c1-0.5,1.9-1.2,2.6-2.2h0.1l-0.2,2.6
		h5.4c0.1-0.8,0.2-1.7,0.4-2.8c0.2-1.1,0.3-2.1,0.5-3.2l3.9-22.2L97.6,2.4L97.6,2.4z M94.7,19l-0.6,3.6c-0.3,1.3-0.7,2.2-1.4,2.7
		C92,25.8,91.3,26,90.7,26c-1,0-1.7-0.5-2.1-1.3c-0.4-0.9-0.5-2.2-0.2-3.9c0.3-1.5,0.8-2.8,1.5-3.8c0.7-1,1.6-1.6,2.7-1.6
		c0.6,0,1.1,0.2,1.6,0.7C94.7,16.7,94.9,17.6,94.7,19z"/>
</g>
</svg>
