<?xml version="1.0" encoding="UTF-8" standalone="no"?>
<svg width="114px" height="44px" viewBox="0 0 114 44" version="1.1" xmlns="http://www.w3.org/2000/svg" xmlns:xlink="http://www.w3.org/1999/xlink">
    <!-- Generator: Sketch 3.7.2 (28276) - http://www.bohemiancoding.com/sketch -->
    <title>Page 1</title>
    <desc>Created with Sketch.</desc>
    <defs>
        <polygon id="path-1" points="22.1503532 44 44.2148387 44 44.2148387 0 22.1503532 0 0.0858677419 0 0.0858677419 44 22.1503532 44"></polygon>
    </defs>
    <g id="Pricing" stroke="none" stroke-width="1" fill="none" fill-rule="evenodd">
        <g id="Artboard-6" transform="translate(-527.000000, -1252.000000)">
            <g id="Page-1" transform="translate(527.000000, 1252.000000)">
                <path d="M25.2196194,22.6239444 L22.0306839,15.3083333 L18.8417484,22.6239444 L25.2196194,22.6239444 Z M13.3458452,27.742 L20.0865548,12.7496111 C20.4493935,11.9478333 21.0972323,11.4571111 22.0049419,11.4571111 L22.1600065,11.4571111 C23.0677161,11.4571111 23.6898129,11.9478333 24.0526516,12.7496111 L30.7933613,27.742 C30.9232968,27.9748333 30.9747806,28.2070556 30.9747806,28.4142222 C30.9747806,29.2673333 30.3269419,29.9389444 29.471329,29.9389444 C28.7192968,29.9389444 28.2007806,29.4995556 27.9157806,28.8279444 L26.438071,25.4411667 L17.6232968,25.4411667 L16.0941032,28.9312222 C15.8348452,29.5771667 15.2899742,29.9389444 14.6163935,29.9389444 C13.7865226,29.9389444 13.1386839,29.293 13.1386839,28.4655556 C13.1386839,28.2333333 13.2159097,28.0005 13.3458452,27.742 L13.3458452,27.742 Z" id="Fill-1" fill="#57C3F3"></path>
                <path d="M93.0036516,27.8103222 C95.0348129,27.8103222 96.2679742,27.0146556 96.2679742,25.4960444 L96.2679742,25.4477667 C96.2679742,24.0251 95.1316516,23.1817667 92.786071,23.1817667 L88.0716194,23.1817667 L88.0716194,27.8103222 L93.0036516,27.8103222 Z M92.133329,20.6743778 C94.0437484,20.6743778 95.3247161,19.9269889 95.3247161,18.3839333 L95.3247161,18.3356556 C95.3247161,17.0101556 94.261329,16.1900444 92.3509097,16.1900444 L88.0716194,16.1900444 L88.0716194,20.6743778 L92.133329,20.6743778 Z M85.1456194,15.0570444 C85.1456194,14.2131 85.7983613,13.5622667 86.6447806,13.5622667 L92.7376516,13.5622667 C94.6719742,13.5622667 96.1956516,14.0927111 97.1622,15.0570444 C97.9123935,15.8044333 98.2991355,16.7204889 98.2991355,17.8534889 L98.2991355,17.9017667 C98.2991355,19.9269889 97.1382968,21.0117111 95.8812323,21.6625444 C97.8633613,22.3378222 99.2417806,23.4708222 99.2417806,25.7612667 L99.2417806,25.8095444 C99.2417806,28.8229333 96.7515548,30.4381 92.9797484,30.4381 L86.6447806,30.4381 C85.7983613,30.4381 85.1456194,29.7872667 85.1456194,28.9433222 L85.1456194,15.0570444 Z" id="Fill-3" fill="#57C3F3"></path>
                <path d="M69.4537645,25.5468889 L43.4439903,25.5468889 C42.4290226,25.5468889 41.6052806,24.7261667 41.6052806,23.7135556 C41.6052806,22.7009444 42.4290226,21.8802222 43.4439903,21.8802222 L69.4537645,21.8802222 C70.4693452,21.8802222 71.2924742,22.7009444 71.2924742,23.7135556 C71.2924742,24.7261667 70.4693452,25.5468889 69.4537645,25.5468889" id="Fill-5" fill="#57C3F3"></path>
                <path d="M22.0645161,3.66666667 C11.925871,3.66666667 3.67741935,11.891 3.67741935,22 C3.67741935,32.109 11.925871,40.3333333 22.0645161,40.3333333 C32.2031613,40.3333333 40.4516129,32.109 40.4516129,22 C40.4516129,11.891 32.2031613,3.66666667 22.0645161,3.66666667 M22.0645161,44 C9.89777419,44 0,34.1311667 0,22 C0,9.86883333 9.89777419,0 22.0645161,0 C34.2312581,0 44.1290323,9.86883333 44.1290323,22 C44.1290323,34.1311667 34.2312581,44 22.0645161,44" id="Fill-7" fill="#57C3F3"></path>
                <g id="Group-11" transform="translate(69.258065, 0.000000)">
                    <mask id="mask-2" fill="white">
                        <use xlink:href="#path-1"></use>
                    </mask>
                    <g id="Clip-10"></g>
                    <path d="M22.1503839,3.66666667 C12.0117387,3.66666667 3.7632871,11.891 3.7632871,22 C3.7632871,32.109 12.0117387,40.3333333 22.1503839,40.3333333 C32.289029,40.3333333 40.5374806,32.109 40.5374806,22 C40.5374806,11.891 32.289029,3.66666667 22.1503839,3.66666667 M22.1503839,44 C9.98364194,44 0.0858677419,34.1311667 0.0858677419,22 C0.0858677419,9.86883333 9.98364194,0 22.1503839,0 C34.3171258,0 44.2149,9.86883333 44.2149,22 C44.2149,34.1311667 34.3171258,44 22.1503839,44" id="Fill-9" fill="#57C3F3" mask="url(#mask-2)"></path>
                </g>
            </g>
        </g>
    </g>
</svg>