<?xml version="1.0" encoding="UTF-8" standalone="no"?>
<svg width="53px" height="59px" viewBox="0 0 53 59" version="1.1" xmlns="http://www.w3.org/2000/svg" xmlns:xlink="http://www.w3.org/1999/xlink">
    <!-- Generator: Sketch 3.7.2 (28276) - http://www.bohemiancoding.com/sketch -->
    <title>Fill 5</title>
    <desc>Created with Sketch.</desc>
    <defs></defs>
    <g id="BVL-Homepage" stroke="none" stroke-width="1" fill="none" fill-rule="evenodd">
        <g id="Artboard-35" transform="translate(-333.000000, -754.000000)" fill="#57C3F3">
            <path d="M381.891127,808.681471 L372.731038,808.681471 L372.731038,792.89592 C372.731038,785.778621 368.979473,779.353724 362.960277,775.810333 C364.818078,773.528322 365.844008,770.677333 365.844008,767.650023 C365.844008,766.081437 365.549528,764.583379 365.037242,763.190437 C365.069811,763.182299 365.101702,763.181621 365.134271,763.172126 C365.879292,762.949011 366.65756,762.836437 367.446685,762.836437 C371.901202,762.836437 375.525205,766.458494 375.525205,770.911299 C375.525205,773.45508 374.360856,775.798805 372.33003,777.342299 C371.747177,777.785138 371.44659,778.507379 371.544298,779.232333 C371.642005,779.957966 372.121723,780.575092 372.800926,780.848391 C378.322764,783.072759 381.891127,788.331218 381.891127,794.244782 L381.891127,808.681471 Z M337.071151,792.89592 C337.071151,786.428977 340.971992,780.679529 347.010187,778.246966 C347.68939,777.973667 348.169108,777.35654 348.266137,776.630908 C348.363844,775.905954 348.063936,775.183713 347.481762,774.740874 C345.242629,773.03869 343.958181,770.454218 343.958181,767.650023 C343.958181,762.740816 347.954015,758.747126 352.865858,758.747126 C357.777023,758.747126 361.772858,762.740816 361.772858,767.650023 C361.772858,770.454218 360.489088,773.03869 358.249955,774.740874 C357.666424,775.183713 357.366516,775.905954 357.464223,776.630908 C357.561931,777.35654 358.041648,777.973667 358.720852,778.246966 C364.758368,780.679529 368.659888,786.428977 368.659888,792.89592 L368.659888,808.681471 L337.071151,808.681471 L337.071151,792.89592 Z M377.008461,778.41108 C378.676954,776.299287 379.596355,773.684299 379.596355,770.911299 C379.596355,764.215138 374.145763,758.767471 367.446685,758.767471 C366.262658,758.767471 365.09356,758.937011 363.969922,759.272701 C363.646944,759.369 363.37282,759.543966 363.146192,759.763011 C360.771355,756.678057 357.052358,754.678161 352.865858,754.678161 C345.709454,754.678161 339.88703,760.49746 339.88703,767.650023 C339.88703,770.677333 340.91296,773.528322 342.770762,775.810333 C336.751565,779.353046 333,785.778621 333,792.89592 L333,810.715954 C333,811.839667 333.911259,812.750437 335.035575,812.750437 L368.995079,812.750437 L370.695463,812.750437 L383.926703,812.750437 C385.051019,812.750437 385.962278,811.839667 385.962278,810.715954 L385.962278,794.244782 C385.962278,787.672046 382.528262,781.732034 377.008461,778.41108 L377.008461,778.41108 Z" id="Fill-5"></path>
        </g>
    </g>
</svg>