<?xml version="1.0" encoding="UTF-8" standalone="no"?>
<svg width="83px" height="61px" viewBox="0 0 83 61" version="1.1" xmlns="http://www.w3.org/2000/svg" xmlns:xlink="http://www.w3.org/1999/xlink">
    <!-- Generator: Sketch 3.7.2 (28276) - http://www.bohemiancoding.com/sketch -->
    <title>Page 1</title>
    <desc>Created with Sketch.</desc>
    <defs>
        <polygon id="path-1" points="82.9564942 -6.93181819e-05 6.91666664e-05 -6.93181819e-05 6.91666664e-05 60.6844636 82.9564942 60.6844636 82.9564942 -6.93181819e-05"></polygon>
    </defs>
    <g id="BVL-Carriers" stroke="none" stroke-width="1" fill="none" fill-rule="evenodd">
        <g id="82---BVL---Desktop-HD---Carriers" transform="translate(-336.000000, -642.000000)">
            <g id="Page-1" transform="translate(336.000000, 642.000000)">
                <mask id="mask-2" fill="white">
                    <use xlink:href="#path-1"></use>
                </mask>
                <g id="Clip-2"></g>
                <path d="M73.8188858,14.1567136 C71.0681275,14.1567136 68.8305858,11.9142705 68.8305858,9.15817955 C68.8305858,6.40139545 71.0681275,4.15895227 73.8188858,4.15895227 C76.5696442,4.15895227 78.8064942,6.40139545 78.8064942,9.15817955 C78.8064942,11.9142705 76.5696442,14.1567136 73.8188858,14.1567136 M9.1376775,56.5253727 C6.38761083,56.5253727 4.15006917,54.2829295 4.15006917,51.5268386 C4.15006917,48.7700545 6.38761083,46.5276114 9.1376775,46.5276114 C11.8884358,46.5276114 14.1259775,48.7700545 14.1259775,51.5268386 C14.1259775,54.2829295 11.8884358,56.5253727 9.1376775,56.5253727 M73.8188858,-0.000138636364 C68.7800942,-0.000138636364 64.6805858,4.10835 64.6805858,9.15817955 C64.6805858,11.298725 65.4227442,13.2652818 66.6552942,14.8263273 L44.9846858,37.6846909 L25.4070608,23.1971909 C24.9491775,22.8589182 24.3730192,22.7223614 23.8106942,22.8228727 C23.2504442,22.9226909 22.7545192,23.2498727 22.4418858,23.7267818 L10.1523525,42.4288273 C9.81896917,42.3913955 9.48074417,42.3685205 9.1376775,42.3685205 C4.0995775,42.3685205 6.91666664e-05,46.4770091 6.91666664e-05,51.5268386 C6.91666664e-05,56.575975 4.0995775,60.6844636 9.1376775,60.6844636 C14.1764692,60.6844636 18.2759775,56.575975 18.2759775,51.5268386 C18.2759775,48.3368159 16.6381108,45.5259636 14.1633275,43.8858955 L24.7036358,27.8463614 L43.9935275,42.1217477 C44.8366692,42.7449182 46.0090442,42.6423273 46.7304525,41.8812136 L69.9158108,17.4257591 C71.1013275,17.9907023 72.4210275,18.3158045 73.8188858,18.3158045 C78.8576775,18.3158045 82.9564942,14.2073159 82.9564942,9.15817955 C82.9564942,4.10835 78.8576775,-0.000138636364 73.8188858,-0.000138636364" id="Fill-1" fill="#57C3F3" mask="url(#mask-2)"></path>
            </g>
        </g>
    </g>
</svg>