<?xml version="1.0" encoding="UTF-8" standalone="no"?>
<svg width="89px" height="67px" viewBox="0 0 89 67" version="1.1" xmlns="http://www.w3.org/2000/svg" xmlns:xlink="http://www.w3.org/1999/xlink">
    <!-- Generator: Sketch 3.7.2 (28276) - http://www.bohemiancoding.com/sketch -->
    <title>Page 1</title>
    <desc>Created with Sketch.</desc>
    <defs>
        <polygon id="path-1" points="88.9246745 0 0.000231770833 0 0.000231770833 66.8003119 88.9246745 66.8003119"></polygon>
    </defs>
    <g id="BVL-Carriers" stroke="none" stroke-width="1" fill="none" fill-rule="evenodd">
        <g id="82---BVL---Desktop-HD---Carriers" transform="translate(-1026.000000, -632.000000)">
            <g id="Page-1" transform="translate(1026.000000, 632.000000)">
                <mask id="mask-2" fill="white">
                    <use xlink:href="#path-1"></use>
                </mask>
                <g id="Clip-2"></g>
                <path d="M54.8437005,3.74815804 L54.8437005,54.3495566 L25.8894974,54.3495566 C25.000888,49.3596965 20.6477682,45.6461161 15.6011901,45.6461161 C10.5541484,45.6461161 6.20149219,49.3596965 5.31334635,54.3495566 L3.7085651,54.3495566 L3.7085651,3.74815804 L54.8437005,3.74815804 Z M22.3123464,56.9887944 C21.9327057,60.399235 19.0105391,63.0520601 15.6011901,63.0520601 C11.8761693,63.0520601 8.84507031,59.9888014 8.84507031,56.2236825 C8.84507031,52.4580951 11.8761693,49.3943678 15.6011901,49.3943678 C19.0105391,49.3943678 21.9327057,52.0476615 22.3123464,55.4585706 C22.2010964,55.7045497 22.1445443,55.9608364 22.1445443,56.2236825 C22.1445443,56.4865287 22.2010964,56.7428154 22.3123464,56.9887944 L22.3123464,56.9887944 Z M85.2163411,43.1619622 L85.2163411,54.3495566 L82.5245547,54.3495566 C81.6364089,49.3596965 77.2832891,45.6461161 72.2367109,45.6461161 C67.1901328,45.6461161 62.837013,49.3596965 61.9488672,54.3495566 L58.5520339,54.3495566 L58.5520339,22.1089692 L64.3870964,22.1089692 C68.9404661,22.1089692 72.6446276,25.8530042 72.6446276,30.4549203 C72.6446276,35.677172 76.8480234,39.9262839 82.0151224,39.9262839 C83.7802891,39.9262839 85.2163411,41.3773259 85.2163411,43.1619622 L85.2163411,43.1619622 Z M72.2367109,63.0520601 C68.5112266,63.0520601 65.4805911,59.9888014 65.4805911,56.2236825 C65.4805911,52.4580951 68.5112266,49.3943678 72.2367109,49.3943678 C75.9612682,49.3943678 78.9919036,52.4576266 78.9928307,56.2250881 C78.9919036,59.9892699 75.9612682,63.0520601 72.2367109,63.0520601 L72.2367109,63.0520601 Z M82.0151224,36.1780322 C78.8927057,36.1780322 76.3529609,33.6104797 76.3529609,30.4549203 C76.3529609,23.7863119 70.9851484,18.360249 64.3870964,18.360249 L58.5520339,18.360249 L58.5520339,1.87403217 C58.5520339,0.840451748 57.7204401,-9.37062941e-05 56.6978672,-9.37062941e-05 L1.85439844,-9.37062941e-05 C0.831825521,-9.37062941e-05 0.000231770833,0.840451748 0.000231770833,1.87403217 L0.000231770833,56.2236825 C0.000231770833,57.2572629 0.831825521,58.0978084 1.85439844,58.0978084 L5.31334635,58.0978084 C6.20149219,63.0872 10.5541484,66.8003119 15.6011901,66.8003119 C20.6477682,66.8003119 25.000888,63.0872 25.8894974,58.0978084 L56.6978672,58.0978084 C56.8105078,58.0978084 56.9268568,58.085158 57.0501589,58.0593888 C57.1734609,58.085158 57.2893464,58.0978084 57.4024505,58.0978084 L61.9488672,58.0978084 C62.837013,63.0872 67.1896693,66.8003119 72.2367109,66.8003119 C77.2832891,66.8003119 81.6364089,63.0872 82.5245547,58.0978084 L87.0705078,58.0978084 C88.0930807,58.0978084 88.9246745,57.2572629 88.9246745,56.2236825 L88.9246745,43.1619622 C88.9246745,39.3106336 85.8249714,36.1780322 82.0151224,36.1780322 L82.0151224,36.1780322 Z" id="Fill-1" fill="#57C3F3" mask="url(#mask-2)"></path>
            </g>
        </g>
    </g>
</svg>