<?xml version="1.0" encoding="UTF-8" standalone="no"?>
<svg width="67px" height="76px" viewBox="0 0 67 76" version="1.1" xmlns="http://www.w3.org/2000/svg" xmlns:xlink="http://www.w3.org/1999/xlink">
    <!-- Generator: Sketch 3.7.2 (28276) - http://www.bohemiancoding.com/sketch -->
    <title>Page 1</title>
    <desc>Created with Sketch.</desc>
    <defs>
        <polygon id="path-1" points="0 74.6428571 67 74.6428571 67 0.152113095 0 0.152113095"></polygon>
    </defs>
    <g id="BVL-Carriers" stroke="none" stroke-width="1" fill="none" fill-rule="evenodd">
        <g id="82---BVL---Desktop-HD---Carriers" transform="translate(-689.000000, -623.000000)">
            <g id="Page-1" transform="translate(689.000000, 623.000000)">
                <g id="Group-3" transform="translate(0.000000, 0.413363)">
                    <mask id="mask-2" fill="white">
                        <use xlink:href="#path-1"></use>
                    </mask>
                    <g id="Clip-2"></g>
                    <path d="M63.6218487,60.2138274 L52.9243697,60.2138274 L52.9243697,12.8846012 C52.9243697,11.9476071 52.1682269,11.1881726 51.2352941,11.1881726 L17.4537815,11.1881726 L17.4537815,3.54463095 L63.6218487,3.54463095 L63.6218487,60.2138274 Z M3.37815126,71.2502262 L3.37815126,14.5810298 L49.5462185,14.5810298 L49.5462185,61.9046012 C49.5462185,61.9068631 49.5456555,61.9085595 49.5456555,61.910256 C49.5456555,61.9119524 49.5462185,61.9136488 49.5462185,61.9159107 L49.5462185,71.2502262 L3.37815126,71.2502262 Z M65.3109244,0.15177381 L15.7647059,0.15177381 C14.8317731,0.15177381 14.0756303,0.911208333 14.0756303,1.84820238 L14.0756303,11.1881726 L1.68907563,11.1881726 C0.756142857,11.1881726 0,11.9476071 0,12.8846012 L0,72.9466548 C0,73.8836488 0.756142857,74.6430833 1.68907563,74.6430833 L51.2352941,74.6430833 C52.1682269,74.6430833 52.9243697,73.8836488 52.9243697,72.9466548 L52.9243697,63.6066845 L65.3109244,63.6066845 C66.2438571,63.6066845 67,62.84725 67,61.910256 L67,1.84820238 C67,0.911208333 66.2438571,0.15177381 65.3109244,0.15177381 L65.3109244,0.15177381 Z" id="Fill-1" fill="#57C3F3" mask="url(#mask-2)"></path>
                </g>
                <path d="M42.789916,25.0457887 L10.1344538,25.0457887 C9.20152101,25.0457887 8.44537815,25.8052232 8.44537815,26.7422173 C8.44537815,27.6792113 9.20152101,28.4386458 10.1344538,28.4386458 L42.789916,28.4386458 C43.7228487,28.4386458 44.4789916,27.6792113 44.4789916,26.7422173 C44.4789916,25.8052232 43.7228487,25.0457887 42.789916,25.0457887" id="Fill-4" fill="#57C3F3"></path>
                <path d="M42.789916,35.6981726 L10.1344538,35.6981726 C9.20152101,35.6981726 8.44537815,36.4576071 8.44537815,37.3946012 C8.44537815,38.3315952 9.20152101,39.0910298 10.1344538,39.0910298 L42.789916,39.0910298 C43.7228487,39.0910298 44.4789916,38.3315952 44.4789916,37.3946012 C44.4789916,36.4576071 43.7228487,35.6981726 42.789916,35.6981726" id="Fill-6" fill="#57C3F3"></path>
                <path d="M42.789916,46.082747 L10.1344538,46.082747 C9.20152101,46.082747 8.44537815,46.8421815 8.44537815,47.7791756 C8.44537815,48.7161696 9.20152101,49.4756042 10.1344538,49.4756042 L42.789916,49.4756042 C43.7228487,49.4756042 44.4789916,48.7161696 44.4789916,47.7791756 C44.4789916,46.8421815 43.7228487,46.082747 42.789916,46.082747" id="Fill-8" fill="#57C3F3"></path>
                <path d="M42.789916,57.6004792 L10.1344538,57.6004792 C9.20152101,57.6004792 8.44537815,58.3599137 8.44537815,59.2969077 C8.44537815,60.2339018 9.20152101,60.9933363 10.1344538,60.9933363 L42.789916,60.9933363 C43.7228487,60.9933363 44.4789916,60.2339018 44.4789916,59.2969077 C44.4789916,58.3599137 43.7228487,57.6004792 42.789916,57.6004792" id="Fill-10" fill="#57C3F3"></path>
            </g>
        </g>
    </g>
</svg>