<?xml version="1.0" encoding="utf-8"?>
<!-- Generator: Adobe Illustrator 16.0.0, SVG Export Plug-In . SVG Version: 6.00 Build 0)  -->
<!DOCTYPE svg PUBLIC "-//W3C//DTD SVG 1.1//EN" "http://www.w3.org/Graphics/SVG/1.1/DTD/svg11.dtd">
<svg version="1.1" id="Layer_1" xmlns="http://www.w3.org/2000/svg" xmlns:xlink="http://www.w3.org/1999/xlink" x="0px" y="0px"
	 width="19px" height="22px" viewBox="0 0 19 22" style="enable-background:new 0 0 19 22;" xml:space="preserve">
<style type="text/css">
<![CDATA[
	.st0{fill:#FFFFFF;}
]]>
</style>
<g>
	<path class="st0" d="M1.6,16.9l5.1-6.3L2.4,5C2,4.4,1.7,4,1.5,3.6C1.3,3.2,1.2,2.8,1.2,2.4c0-0.4,0.2-0.7,0.6-1S2.7,1,3.2,1
		c0.6,0,1.1,0.2,1.5,0.5c0.4,0.3,0.8,0.9,1.5,1.8L9.6,8l3.6-4.7c0.3-0.4,0.6-0.7,0.8-1c0.2-0.3,0.4-0.5,0.6-0.7
		c0.2-0.2,0.4-0.3,0.7-0.4C15.5,1,15.8,1,16.1,1c0.6,0,1.1,0.1,1.4,0.4c0.4,0.3,0.5,0.6,0.5,1c0,0.6-0.4,1.4-1.2,2.4l-4.5,5.7
		l4.8,6.3c0.4,0.6,0.7,1,0.9,1.4c0.2,0.4,0.3,0.7,0.3,1c0,0.3-0.1,0.6-0.3,0.8s-0.4,0.5-0.7,0.6S16.8,21,16.4,21
		c-0.4,0-0.8-0.1-1.1-0.2c-0.3-0.2-0.5-0.3-0.7-0.6c-0.2-0.2-0.5-0.7-1-1.3l-4-5.4L5.3,19c-0.3,0.4-0.6,0.7-0.7,0.9
		c-0.1,0.2-0.3,0.3-0.5,0.5c-0.2,0.2-0.4,0.3-0.7,0.4C3.1,21,2.8,21,2.4,21c-0.6,0-1-0.1-1.4-0.4c-0.4-0.3-0.5-0.7-0.5-1.3
		C0.5,18.7,0.9,17.9,1.6,16.9z"/>
</g>
</svg>
