<?xml version="1.0" encoding="UTF-8" standalone="no"?>
<svg width="76px" height="59px" viewBox="0 0 76 59" version="1.1" xmlns="http://www.w3.org/2000/svg" xmlns:xlink="http://www.w3.org/1999/xlink">
    <!-- Generator: Sketch 3.7.2 (28276) - http://www.bohemiancoding.com/sketch -->
    <title>Fill 7</title>
    <desc>Created with Sketch.</desc>
    <defs></defs>
    <g id="BVL-Homepage" stroke="none" stroke-width="1" fill="none" fill-rule="evenodd">
        <g id="Artboard-35" transform="translate(-1036.000000, -754.000000)" fill="#57C3F3">
            <path d="M1065.96934,771.570449 C1059.21095,771.570449 1053.7128,777.065647 1053.7128,783.820409 C1053.7128,790.575171 1059.21095,796.070966 1065.96934,796.070966 C1072.72773,796.070966 1078.22588,790.575171 1078.22588,783.820409 C1078.22588,783.642778 1078.20673,783.469334 1078.19895,783.292899 L1083.45774,782.328787 C1083.49962,782.82101 1083.52595,783.318018 1083.52595,783.820409 C1083.52595,793.437602 1075.69762,801.261739 1066.07586,801.261739 C1056.4535,801.261739 1048.62516,793.437602 1048.62516,783.820409 C1048.62516,774.203216 1056.4535,766.379079 1066.07586,766.379079 C1073.95326,766.379079 1080.62488,771.624277 1082.78632,778.803081 L1077.52215,779.768389 C1075.84303,775.002256 1071.30532,771.570449 1065.96934,771.570449 M1063.60504,784.143972 C1063.76362,785.009998 1064.5194,785.615259 1065.36914,785.615259 C1065.47625,785.615259 1065.58516,785.60569 1065.69527,785.585953 L1074.62886,783.947801 C1074.56005,788.664891 1070.70512,792.482462 1065.96934,792.482462 C1061.19047,792.482462 1057.30323,788.596709 1057.30323,783.820409 C1057.30323,779.044707 1061.19047,775.158954 1065.96934,775.158954 C1069.54242,775.158954 1072.61643,777.332392 1073.9401,780.425085 L1065.0466,782.055463 C1064.0718,782.234888 1063.42612,783.170291 1063.60504,784.143972 M1091.64332,783.820409 C1091.64332,797.911271 1080.17369,809.37475 1066.07586,809.37475 C1051.97743,809.37475 1040.50779,797.911271 1040.50779,783.820409 C1040.50779,769.730145 1051.97743,758.266666 1066.07586,758.266666 C1077.93146,758.266666 1087.92603,766.374294 1090.80615,777.33299 L1086.33367,778.152964 C1083.85149,769.302514 1075.71258,762.790574 1066.07586,762.790574 C1054.47337,762.790574 1045.03473,772.224754 1045.03473,783.820409 C1045.03473,795.416064 1054.47337,804.850244 1066.07586,804.850244 C1077.67714,804.850244 1087.11639,795.416064 1087.11639,783.820409 C1087.11639,783.097325 1087.07928,782.382615 1087.00807,781.678072 L1091.46619,780.860491 C1091.57929,781.832377 1091.64332,782.819216 1091.64332,783.820409 M1109.43571,773.917332 L1094.34632,776.683471 C1091.15323,764.053728 1079.69077,754.678161 1066.07586,754.678161 C1049.9979,754.678161 1036.91736,767.751084 1036.91736,783.820409 C1036.91736,799.890332 1049.9979,812.963255 1066.07586,812.963255 C1082.15381,812.963255 1095.23375,799.890332 1095.23375,783.820409 C1095.23375,782.597925 1095.14938,781.395776 1095.00217,780.212167 L1098.09234,779.645782 L1100.70019,784.813229 C1101.01555,785.438825 1101.64806,785.800067 1102.30451,785.800067 C1102.57679,785.800067 1102.85265,785.737867 1103.11116,785.607484 C1103.9968,785.161314 1104.35285,784.081772 1103.90584,783.197205 L1101.77313,778.971143 L1104.28284,778.510618 L1107.16237,784.215743 C1107.47832,784.84074 1108.11024,785.201983 1108.76669,785.201983 C1109.03897,785.201983 1109.31483,785.139783 1109.57394,785.0094 C1110.45898,784.563229 1110.81443,783.483688 1110.36802,782.598523 L1107.96423,777.835979 L1110.08318,777.447224 C1111.05858,777.267799 1111.70426,776.332994 1111.52534,775.358714 C1111.34642,774.383239 1110.40872,773.740299 1109.43571,773.917332" id="Fill-7"></path>
        </g>
    </g>
</svg>