<?xml version="1.0" encoding="UTF-8"?>
<svg width="19px" height="19px" viewBox="0 0 19 19" version="1.1" xmlns="http://www.w3.org/2000/svg" xmlns:xlink="http://www.w3.org/1999/xlink">
    <!-- Generator: Sketch 40.3 (33839) - http://www.bohemiancoding.com/sketch -->
    <title>success-icon</title>
    <desc>Created with Sketch.</desc>
    <defs></defs>
    <g id="Page-1" stroke="none" stroke-width="1" fill="none" fill-rule="evenodd">
        <g id="Page-1---Success" transform="translate(-540.000000, -268.000000)" fill="#FFFFFF">
            <path d="M555.64039,275.381679 C555.64039,275.1543 555.567305,274.967526 555.421132,274.821354 L554.312662,273.725065 C554.158369,273.570772 553.975656,273.493626 553.764518,273.493626 C553.553379,273.493626 553.370666,273.570772 553.216373,273.725065 L548.24653,278.682727 L545.493626,275.929824 C545.339333,275.775531 545.15662,275.698385 544.945482,275.698385 C544.734343,275.698385 544.55163,275.775531 544.397337,275.929824 L543.288867,277.026113 C543.142694,277.172285 543.069609,277.359059 543.069609,277.586438 C543.069609,277.805697 543.142694,277.98841 543.288867,278.134583 L547.698385,282.544101 C547.852678,282.698394 548.035391,282.77554 548.24653,282.77554 C548.465788,282.77554 548.652562,282.698394 548.806855,282.544101 L555.421132,275.929824 C555.567305,275.783651 555.64039,275.600938 555.64039,275.381679 L555.64039,275.381679 Z M558.709999,277.355 C558.709999,279.052226 558.291789,280.617467 557.455357,282.050771 C556.618925,283.484074 555.484074,284.618925 554.050771,285.455357 C552.617467,286.291789 551.052226,286.709999 549.355,286.709999 C547.657773,286.709999 546.092532,286.291789 544.659228,285.455357 C543.225925,284.618925 542.091074,283.484074 541.254642,282.050771 C540.41821,280.617467 540,279.052226 540,277.355 C540,275.657773 540.41821,274.092532 541.254642,272.659228 C542.091074,271.225925 543.225925,270.091074 544.659228,269.254642 C546.092532,268.41821 547.657773,268 549.355,268 C551.052226,268 552.617467,268.41821 554.050771,269.254642 C555.484074,270.091074 556.618925,271.225925 557.455357,272.659228 C558.291789,274.092532 558.709999,275.657773 558.709999,277.355 L558.709999,277.355 Z" id="success-icon"></path>
        </g>
    </g>
</svg>