<?xml version="1.0" encoding="utf-8"?>
<!-- Generator: Adobe Illustrator 21.0.0, SVG Export Plug-In . SVG Version: 6.00 Build 0)  -->
<svg version="1.1" id="Layer_1" xmlns="http://www.w3.org/2000/svg" xmlns:xlink="http://www.w3.org/1999/xlink" x="0px" y="0px"
	 viewBox="0 0 10 10" style="enable-background:new 0 0 10 10;" xml:space="preserve">
<style type="text/css">
	.st0{fill:#FFFFFF;}
</style>
<title>X</title>
<desc>Created with Sketch.</desc>
<g id="X">
	<path id="hide" class="st0" d="M7.8,0.4L5,3.2L2.2,0.4c-0.5-0.5-1.3-0.5-1.8,0c-0.5,0.5-0.5,1.3,0,1.8L3.2,5L0.4,7.8
		c-0.5,0.5-0.5,1.3,0,1.8c0.5,0.5,1.3,0.5,1.8,0L5,6.8l2.8,2.8c0.5,0.5,1.3,0.5,1.8,0c0.5-0.5,0.5-1.3,0-1.8L6.8,5l2.8-2.8
		c0.5-0.5,0.5-1.3,0-1.8C9.1-0.1,8.3-0.1,7.8,0.4"/>
</g>
</svg>
